<svg xmlns="http://www.w3.org/2000/svg" width="72" height="96" viewBox="0 0 72 96">
  <defs>
    <linearGradient id="hair" x1="0%" y1="0%" x2="100%" y2="100%">
      <stop offset="0%" style="stop-color:#6ad4ff;stop-opacity:1"/>
      <stop offset="100%" style="stop-color:#3d8fd9;stop-opacity:1"/>
    </linearGradient>
    <linearGradient id="skin" x1="0%" y1="0%" x2="0%" y2="100%">
      <stop offset="0%" style="stop-color:#ffeef5;stop-opacity:1"/>
      <stop offset="100%" style="stop-color:#ffd6e8;stop-opacity:1"/>
    </linearGradient>
    <linearGradient id="dress" x1="0%" y1="0%" x2="0%" y2="100%">
      <stop offset="0%" style="stop-color:#8ecbff;stop-opacity:1"/>
      <stop offset="100%" style="stop-color:#5aa8f0;stop-opacity:1"/>
    </linearGradient>
    <radialGradient id="cheek" cx="50%" cy="50%" r="50%">
      <stop offset="0%" style="stop-color:#ff9ec4;stop-opacity:0.9"/>
      <stop offset="100%" style="stop-color:#ff9ec4;stop-opacity:0"/>
    </radialGradient>
  </defs>
  <ellipse cx="36" cy="88" rx="16" ry="5" fill="#2a3040" opacity="0.22"/>
  <path d="M22 78 Q36 92 50 78 L46 56 Q36 52 26 56 Z" fill="url(#dress)" stroke="#4a8ad0" stroke-width="0.8" stroke-opacity="0.35"/>
  <ellipse cx="36" cy="44" rx="22" ry="24" fill="url(#skin)" stroke="#e8b8cc" stroke-width="0.9" stroke-opacity="0.5"/>
  <path d="M18 38 Q20 14 36 12 Q52 14 54 38 Q48 30 36 28 Q24 30 18 38" fill="url(#hair)" stroke="#2d7ab8" stroke-width="0.6" stroke-opacity="0.4"/>
  <ellipse cx="28" cy="46" rx="5" ry="4.5" fill="url(#cheek)"/>
  <ellipse cx="44" cy="46" rx="5" ry="4.5" fill="url(#cheek)"/>
  <ellipse cx="30" cy="42" rx="3.2" ry="4" fill="#3a4a5a"/>
  <ellipse cx="42" cy="42" rx="3.2" ry="4" fill="#3a4a5a"/>
  <ellipse cx="31" cy="40.5" rx="1.1" ry="1.3" fill="#ffffff" opacity="0.85"/>
  <ellipse cx="43" cy="40.5" rx="1.1" ry="1.3" fill="#ffffff" opacity="0.85"/>
  <path d="M32 52 Q36 55 40 52" fill="none" stroke="#d080a0" stroke-width="1.2" stroke-linecap="round"/>
  <ellipse cx="26" cy="62" rx="7" ry="9" fill="url(#skin)" stroke="#e8b8cc" stroke-width="0.6" stroke-opacity="0.4"/>
  <ellipse cx="46" cy="62" rx="7" ry="9" fill="url(#skin)" stroke="#e8b8cc" stroke-width="0.6" stroke-opacity="0.4"/>
</svg>
